<svg xmlns="http://www.w3.org/2000/svg" style="display: none;">
    <symbol id="icon-cog" viewBox="0 0 32 32">
      <title>cog icon</title>
      <path stroke="#449FDB" d="M0 0"/><path d="M32 19.003v-6.006l-4.587-.764c-.186-.567-.413-1.115-.678-1.641l2.702-3.782-4.247-4.247-3.776 2.697c-.528-.267-1.079-.497-1.649-.684l-.763-4.575h-6.006l-.763 4.575c-.57.188-1.121.417-1.649.684l-3.776-2.697-4.247 4.247 2.702 3.782c-.265.526-.492 1.074-.678 1.641l-4.587.764v6.006l4.597.766c.186.561.413 1.105.676 1.626l-2.711 3.795 4.247 4.247 3.802-2.715c.519.261 1.059.485 1.618.67l.768 4.608h6.006l.768-4.609c.559-.185 1.099-.409 1.618-.67l3.802 2.715 4.247-4.247-2.711-3.795c.264-.521.49-1.064.676-1.626l4.597-.766zm-16 .997c-2.209 0-4-1.791-4-4s1.791-4 4-4 4 1.791 4 4-1.791 4-4 4z"/>
    </symbol>

    <symbol id="icon-folder" viewBox="0 0 32 32">
      <title>folder icon</title>
      <path d="M0 10h32l-2 20h-28l-2-20zm29-4l1 2h-28l2-4h11l1 2h13z"/>
    </symbol>

    <symbol id="icon-GD-logo2" viewBox="0 0 310 380">
      <title>GD-logo2 icon</title>
      <path fill="#3E215A" d="M135.587 160.335v63.7c0 1.244-1.018 2.238-2.262 2.208-49.38-1.2-89.042-41.607-89.042-91.276 0-49.707 39.72-90.136 89.153-91.28 1.182-.026 2.15-1.018 2.15-2.2v-35.297c0-1.24-1.014-2.228-2.254-2.207-71.308 1.205-128.746 59.387-128.746 130.984 0 72.042 58.153 130.5 130.077 130.998.508.004 1.217-.29 1.576-.65l19.195-19.195 19.203-19.2c.355-.356.646-1.058.646-1.56v-104.918c0-2.928-1.694-3.63-3.765-1.56l-32.03 32.03c-2.146 2.146-3.903 6.386-3.903 9.422z"/><path fill="#8DC63F" d="M171.994 118.41l-32.546 32.59c-2.123 2.127-3.86 6.326-3.86 9.33v.055c1.387-3.582 3.787-5.522 8.834-5.565l3.68-.005h27.182c3.538 0 7.03.2 10.462.593 45.5 5.19 80.842 43.823 80.842 90.71 0 47.713-36.597 86.877-83.25 90.954-1.914.167-3.845.275-5.79.323-1.24.03-2.264-.967-2.264-2.208v-75.804c0-1.965-2.376-2.95-3.765-1.56l-34.642 34.642c-.71.71-1.292 2.114-1.292 3.12v77.125c0 2.426 1.985 4.41 4.41 4.41h35.287c2.803 0 5.585-.087 8.344-.26 68.462-4.303 122.657-61.193 122.657-130.74 0-70.727-56.05-128.363-126.153-130.913-3.037-.11-5.986 1.052-8.136 3.202z"/>
    </symbol>

    <symbol id="icon-github" viewBox="0 0 32 32">
      <title>github icon</title>
      <path stroke="#449FDB" d="M0 0"/><path d="M0 17.388c0 1.45.136 2.762.407 3.935s.647 2.193 1.127 3.059c.48.866 1.09 1.627 1.831 2.285s1.544 1.195 2.41 1.612c.866.417 1.854.756 2.965 1.017s2.245.443 3.403.548c1.158.104 2.431.156 3.818.156 1.398 0 2.676-.052 3.834-.156s2.295-.287 3.411-.548c1.116-.261 2.11-.6 2.981-1.017s1.68-.954 2.425-1.612c.746-.657 1.361-1.419 1.846-2.285s.863-1.886 1.134-3.059c.271-1.174.407-2.486.407-3.935 0-2.587-.866-4.825-2.597-6.713.094-.25.18-.535.258-.853s.151-.772.219-1.361.042-1.27-.078-2.042-.342-1.56-.665-2.363l-.235-.047c-.167-.031-.441-.023-.822.024s-.824.141-1.33.282c-.506.141-1.158.412-1.956.814s-1.64.905-2.527 1.51c-1.523-.417-3.615-.626-6.275-.626-2.65 0-4.736.209-6.259.626-.887-.605-1.734-1.108-2.543-1.51s-1.453-.673-1.933-.814c-.48-.141-.928-.232-1.346-.274s-.681-.055-.79-.039l-.258.055c-.323.803-.545 1.591-.665 2.363s-.146 1.453-.078 2.042c.068.589.141 1.043.219 1.361s.164.602.258.853c-1.732 1.888-2.598 4.126-2.598 6.713zm3.928 3.927c0-1.502.683-2.879 2.05-4.131.407-.376.881-.66 1.424-.853s1.155-.302 1.839-.329c.683-.026 1.338-.021 1.964.016s1.398.086 2.316.149c.918.063 1.711.094 2.379.094s1.46-.031 2.378-.094c.918-.063 1.69-.112 2.316-.149s1.28-.042 1.964-.016c.683.026 1.296.136 1.839.329s1.017.477 1.424.853c1.367 1.231 2.05 2.608 2.05 4.131 0 .897-.112 1.693-.337 2.386s-.511 1.275-.861 1.745c-.349.469-.834.868-1.455 1.197s-1.226.582-1.815.759c-.589.177-1.346.316-2.269.415s-1.747.159-2.472.18c-.725.021-1.646.031-2.762.031s-2.037-.01-2.762-.031c-.725-.021-1.549-.081-2.472-.18s-1.68-.237-2.269-.415c-.589-.177-1.194-.43-1.815-.759s-1.106-.728-1.455-1.197c-.349-.469-.636-1.051-.861-1.745s-.336-1.489-.336-2.386zm16.072-.315c0-1.657.895-3 2-3s2 1.343 2 3-.895 3-2 3-2-1.343-2-3zm-12 0c0-1.657.895-3 2-3s2 1.343 2 3-.895 3-2 3-2-1.343-2-3z"/>
    </symbol>

    <symbol id="icon-github2" viewBox="0 0 32 32">
      <title>github2 icon</title>
      <path stroke="#449FDB" d="M0 0"/><path d="M8.233 23.73c0 .845.715 1.268 2.146 1.268 1.252 0 1.878-.439 1.878-1.317 0-.829-.683-1.244-2.048-1.244-1.317 0-1.975.43-1.975 1.292zm18.434-23.73h-21.333c-2.934 0-5.334 2.4-5.334 5.334v21.332c0 2.936 2.4 5.334 5.334 5.334h21.333c2.933 0 5.333-2.398 5.333-5.334v-21.332c0-2.934-2.399-5.334-5.333-5.334zm-11.8 12.781c-.228.081-.553.171-.975.268.13.374.195.723.195 1.049 0 1.04-.313 1.947-.939 2.719s-1.435 1.231-2.426 1.378c-.65.098-.975.447-.975 1.049 0 .211.106.423.317.634.276.309.683.504 1.219.585 2.325.358 3.487 1.325 3.487 2.902 0 2.52-1.504 3.78-4.511 3.78-1.236 0-2.252-.22-3.048-.658-1.008-.553-1.512-1.422-1.512-2.609 0-1.366.756-2.3 2.268-2.804v-.049c-.553-.341-.829-.862-.829-1.561 0-.91.26-1.48.78-1.707v-.049c-.52-.179-.984-.585-1.39-1.22-.455-.683-.683-1.414-.683-2.195 0-1.171.415-2.146 1.244-2.926.797-.732 1.748-1.097 2.853-1.097.797 0 1.536.195 2.219.585.78 0 1.683-.195 2.707-.585v2.512zm3.951 8.438h-2.756c.033-.325.049-.878.049-1.658v-7.584c0-.764-.016-1.293-.049-1.585h2.756c-.033.309-.049.821-.049 1.536v7.486c0 .829.016 1.431.049 1.805zm-.183-13.266c-.333.358-.728.536-1.183.536-.471 0-.874-.179-1.207-.536s-.5-.78-.5-1.268c0-.504.167-.935.5-1.293s.736-.537 1.207-.537c.455 0 .849.179 1.183.537s.5.788.5 1.293c0 .488-.167.91-.5 1.268zm7.668 12.948c-.602.325-1.325.488-2.171.488-1.187 0-2.008-.422-2.463-1.268-.342-.634-.512-1.634-.512-2.999v-4.365h.024v-.049l-.366-.024c-.211 0-.488.024-.829.073v-2.365h1.195v-.951c0-.455-.024-.821-.073-1.098h2.829c-.048.309-.073.658-.073 1.049v1h2.121v2.365l-.451-.024-.622-.025h-1.049v4.536c0 1.09.358 1.634 1.073 1.634.504 0 .959-.138 1.366-.415v2.439zm-16.265-8.388c-1.024 0-1.536.602-1.536 1.805 0 1.122.512 1.683 1.536 1.683.992 0 1.488-.569 1.488-1.707 0-.472-.114-.878-.341-1.219-.276-.374-.659-.561-1.146-.561z"/>
    </symbol>

    <symbol id="icon-linkedin" viewBox="0 0 32 32">
      <title>linkedin icon</title>
      <path stroke="#449FDB" d="M0 0"/><path d="M26.625 0h-21.25c-2.956 0-5.375 2.419-5.375 5.375v21.25c0 2.956 2.419 5.375 5.375 5.375h21.25c2.956 0 5.375-2.419 5.375-5.375v-21.25c0-2.956-2.419-5.375-5.375-5.375zm-14.625 26h-4v-14h4v14zm-2-16c-1.105 0-2-.895-2-2s.895-2 2-2 2 .895 2 2-.895 2-2 2zm16 16h-4v-8c0-1.105-.895-2-2-2s-2 .895-2 2v8h-4v-14h4v2.483c.825-1.133 2.086-2.483 3.5-2.483 2.485 0 4.5 2.239 4.5 5v9z"/>
    </symbol>

    <symbol id="icon-menu" viewBox="0 0 32 32">
      <title>menu icon</title>
      <path stroke="#449FDB" d="M0 0"/><path d="M2 6h28v6h-28zm0 8h28v6h-28zm0 8h28v6h-28z"/>
    </symbol>

    <symbol id="icon-spinner" viewBox="0 0 32 32">
      <title>spinner icon</title>
      <path stroke="#449FDB" d="M0 0"/><path d="M16 0c-8.711 0-15.796 6.961-15.995 15.624.185-7.558 5.932-13.624 12.995-13.624 7.18 0 13 6.268 13 14 0 1.657 1.343 3 3 3s3-1.343 3-3c0-8.837-7.163-16-16-16zm0 32c8.711 0 15.796-6.961 15.995-15.624-.185 7.558-5.932 13.624-12.995 13.624-7.18 0-13-6.268-13-14 0-1.657-1.343-3-3-3s-3 1.343-3 3c0 8.837 7.163 16 16 16z"/>
    </symbol>

    <symbol id="icon-twitter" viewBox="0 0 32 32">
      <title>twitter icon</title>
      <path stroke="#449FDB" d="M0 0"/><path d="M26.667 0h-21.333c-2.934 0-5.334 2.4-5.334 5.334v21.332c0 2.936 2.4 5.334 5.334 5.334h21.333c2.934 0 5.333-2.398 5.333-5.334v-21.332c0-2.934-2.399-5.334-5.333-5.334zm-.478 10.682l.015.692c0 7.069-5.288 15.221-14.958 15.221-2.969 0-5.732-.886-8.059-2.404.411.05.83.075 1.254.075 2.463 0 4.73-.855 6.529-2.29-2.3-.043-4.242-1.59-4.911-3.715.321.063.65.096.989.096.479 0 .944-.066 1.385-.188-2.405-.492-4.217-2.654-4.217-5.245v-.067c.709.401 1.519.641 2.381.669-1.411-.959-2.339-2.597-2.339-4.453 0-.98.259-1.899.712-2.689 2.593 3.237 6.467 5.366 10.836 5.589-.09-.392-.136-.8-.136-1.219 0-2.954 2.354-5.349 5.257-5.349 1.512 0 2.879.65 3.838 1.689 1.198-.24 2.323-.685 3.338-1.298-.393 1.249-1.226 2.298-2.311 2.96 1.063-.129 2.077-.417 3.019-.842-.705 1.073-1.596 2.015-2.623 2.769z"/>
    </symbol>
</svg>