<?xml version="1.0" encoding="utf-8"?>
<!-- Generator: Adobe Illustrator 17.1.0, SVG Export Plug-In . SVG Version: 6.00 Build 0)  -->
<!DOCTYPE svg PUBLIC "-//W3C//DTD SVG 1.1 Tiny//EN" "http://www.w3.org/Graphics/SVG/1.1/DTD/svg11-tiny.dtd">
<svg version="1.1" baseProfile="tiny" id="Layer_1" xmlns="http://www.w3.org/2000/svg" xmlns:xlink="http://www.w3.org/1999/xlink"
   width="310px" height="380px" viewBox="0 0 310 380" overflow="scroll" xml:space="preserve">
<path fill="#3E215A" d="M135.587,160.335v63.7c0,1.244-1.018,2.238-2.262,2.208c-49.381-1.201-89.042-41.607-89.042-91.276
  c0-49.707,39.721-90.136,89.153-91.279c1.182-0.027,2.15-1.019,2.15-2.202V6.192c0-1.24-1.014-2.228-2.254-2.207
  C62.024,5.188,4.586,63.37,4.586,134.967c0,72.042,58.153,130.501,130.077,130.998c0.508,0.004,1.217-0.29,1.576-0.649
  l19.196-19.196l19.203-19.201c0.355-0.355,0.646-1.057,0.646-1.56V120.443c0-2.928-1.694-3.63-3.765-1.559l-32.03,32.029
  C137.344,153.059,135.587,157.299,135.587,160.335z"/>
<path fill="#8DC63F" d="M171.994,118.409l-32.546,32.592c-2.123,2.126-3.861,6.325-3.861,9.329v0.055
  c1.388-3.582,3.788-5.522,8.835-5.565l3.679-0.005h27.183c3.538,0,7.029,0.201,10.462,0.593
  c45.499,5.19,80.842,43.823,80.842,90.711c0,47.712-36.597,86.876-83.251,90.953c-1.913,0.167-3.844,0.275-5.789,0.323
  c-1.24,0.03-2.264-0.967-2.264-2.208v-75.804c0-1.965-2.376-2.949-3.765-1.559l-34.641,34.641c-0.711,0.711-1.292,2.114-1.292,3.119
  v77.126c0,2.426,1.985,4.411,4.411,4.411h35.286c2.803,0,5.585-0.088,8.344-0.261c68.462-4.303,122.657-61.193,122.657-130.74
  c0-70.727-56.05-128.363-126.153-130.913C177.093,115.096,174.144,116.259,171.994,118.409z"/>
</svg>
