<svg xmlns="http://www.w3.org/2000/svg" style="display: none;">
    <symbol id="icon-envelope" viewBox="0 0 32 32">
      <title>envelope icon</title>
      <path d="M29 4h-26c-1.65 0-3 1.35-3 3v20c0 1.65 1.35 3 3 3h26c1.65 0 3-1.35 3-3v-20c0-1.65-1.35-3-3-3zm-16.539 13.199l-8.461 6.59v-15.676l8.461 9.086zm-6.949-9.199h20.976l-10.488 7.875-10.488-7.875zm7.278 9.553l3.21 3.447 3.21-3.447 6.58 8.447h-19.579l6.58-8.447zm6.749-.354l8.461-9.086v15.676l-8.461-6.59z"/>
    </symbol>

    <symbol id="icon-folder" viewBox="0 0 32 32">
      <title>folder icon</title>
      <path d="M0 10h32l-2 20h-28l-2-20zm29-4l1 2h-28l2-4h11l1 2h13z"/>
    </symbol>

    <symbol id="icon-gd-logo2" viewBox="0 0 310 380">
      <title>gd-logo2 icon</title>
      <path fill="#3E215A" d="M135.587 160.335v63.7c0 1.244-1.018 2.238-2.262 2.208-49.381-1.201-89.042-41.607-89.042-91.276 0-49.707 39.721-90.136 89.153-91.279 1.182-.027 2.15-1.019 2.15-2.202v-35.294c0-1.24-1.014-2.228-2.254-2.207-71.308 1.203-128.746 59.385-128.746 130.982 0 72.042 58.153 130.501 130.077 130.998.508.004 1.217-.29 1.576-.649l19.196-19.196 19.203-19.201c.355-.355.646-1.057.646-1.56v-104.916c0-2.928-1.694-3.63-3.765-1.559l-32.03 32.029c-2.145 2.146-3.902 6.386-3.902 9.422z"/><path fill="#8DC63F" d="M171.994 118.409l-32.546 32.592c-2.123 2.126-3.861 6.325-3.861 9.329v.055c1.388-3.582 3.788-5.522 8.835-5.565l3.679-.005h27.183c3.538 0 7.029.201 10.462.593 45.499 5.19 80.842 43.823 80.842 90.711 0 47.712-36.597 86.876-83.251 90.953-1.913.167-3.844.275-5.789.323-1.24.03-2.264-.967-2.264-2.208v-75.804c0-1.965-2.376-2.949-3.765-1.559l-34.641 34.641c-.711.711-1.292 2.114-1.292 3.119v77.126c0 2.426 1.985 4.411 4.411 4.411h35.286c2.803 0 5.585-.088 8.344-.261 68.462-4.303 122.657-61.193 122.657-130.74 0-70.727-56.05-128.363-126.153-130.913-3.038-.111-5.987 1.052-8.137 3.202z"/>
    </symbol>

    <symbol id="icon-github" viewBox="0 0 32 32">
      <title>github icon</title>
      <path d="M16 0c-8.837 0-16 7.163-16 16s7.163 16 16 16 16-7.163 16-16-7.163-16-16-16zm9.502 25.502c-1.235 1.235-2.672 2.204-4.272 2.881-.406.172-.819.323-1.238.453v-2.398c0-1.26-.432-2.188-1.297-2.781.542-.052 1.039-.125 1.492-.219s.932-.229 1.438-.406.958-.388 1.359-.633.786-.563 1.156-.953.68-.833.93-1.328.448-1.089.594-1.781.219-1.456.219-2.289c0-1.615-.526-2.99-1.578-4.125.479-1.25.427-2.609-.156-4.078l-.391-.047c-.271-.031-.758.083-1.461.344s-1.492.688-2.367 1.281c-1.24-.344-2.526-.516-3.859-.516-1.344 0-2.625.172-3.844.516-.552-.375-1.075-.685-1.57-.93s-.891-.411-1.188-.5-.573-.143-.828-.164-.419-.026-.492-.016l-.156.031c-.583 1.479-.635 2.839-.156 4.078-1.052 1.135-1.578 2.51-1.578 4.125 0 .833.073 1.596.219 2.289s.344 1.286.594 1.781.56.938.93 1.328.755.708 1.156.953.854.456 1.359.633.984.313 1.438.406.95.167 1.492.219c-.854.583-1.281 1.51-1.281 2.781v2.445c-.472-.14-.937-.306-1.394-.5-1.6-.677-3.037-1.646-4.272-2.881s-2.204-2.672-2.881-4.272c-.7-1.655-1.055-3.414-1.055-5.23s.355-3.575 1.055-5.23c.677-1.6 1.646-3.037 2.881-4.272s2.672-2.204 4.272-2.881c1.655-.7 3.415-1.055 5.23-1.055s3.575.355 5.23 1.055c1.6.677 3.037 1.646 4.272 2.881s2.204 2.672 2.881 4.272c.7 1.655 1.055 3.415 1.055 5.23s-.355 3.575-1.055 5.23c-.677 1.6-1.646 3.037-2.881 4.272z"/>
    </symbol>

    <symbol id="icon-home" viewBox="0 0 32 32">
      <title>home icon</title>
      <path d="M16 2l-16 16 3 3 3-3 2 12h6v-6h4v6h6l2-12 3 3 3-3-16-16zm0 12.828c-1.562 0-2.829-1.266-2.829-2.828s1.266-2.828 2.829-2.828c1.562 0 2.828 1.266 2.828 2.828s-1.266 2.828-2.828 2.828z"/>
    </symbol>

    <symbol id="icon-image" viewBox="0 0 32 32">
      <title>image icon</title>
      <path d="M0 4v26h32v-26h-32zm30 24h-28v-22h28v22zm-8-17c0-1.657 1.343-3 3-3s3 1.343 3 3-1.343 3-3 3-3-1.343-3-3zm6 15h-24l6-16 8 10 4-3z"/>
    </symbol>

    <symbol id="icon-linkedin" viewBox="0 0 32 32">
      <title>linkedin icon</title>
      <path d="M26.625 0h-21.25c-2.956 0-5.375 2.419-5.375 5.375v21.25c0 2.956 2.419 5.375 5.375 5.375h21.25c2.956 0 5.375-2.419 5.375-5.375v-21.25c0-2.956-2.419-5.375-5.375-5.375zm-14.625 26h-4v-14h4v14zm-2-16c-1.105 0-2-.895-2-2s.895-2 2-2 2 .895 2 2-.895 2-2 2zm16 16h-4v-8c0-1.105-.895-2-2-2s-2 .895-2 2v8h-4v-14h4v2.483c.825-1.133 2.086-2.483 3.5-2.483 2.485 0 4.5 2.239 4.5 5v9z"/>
    </symbol>

    <symbol id="icon-menu" viewBox="0 0 32 32">
      <title>menu icon</title>
      <path d="M2 6h28v6h-28zm0 8h28v6h-28zm0 8h28v6h-28z"/>
    </symbol>

    <symbol id="icon-mobile" viewBox="0 0 32 32">
      <title>mobile icon</title>
      <path d="M23 0h-14c-1.65 0-3 1.35-3 3v26c0 1.65 1.35 3 3 3h14c1.65 0 3-1.35 3-3v-26c0-1.65-1.35-3-3-3zm-11 1.5h8v1h-8v-1zm4 28.5c-1.105 0-2-.895-2-2s.895-2 2-2 2 .895 2 2-.895 2-2 2zm8-6h-16v-20h16v20z"/>
    </symbol>

    <symbol id="icon-twitter" viewBox="0 0 32 32">
      <title>twitter icon</title>
      <path d="M32 6.076c-1.177.522-2.443.875-3.771 1.034 1.355-.813 2.396-2.099 2.887-3.632-1.269.752-2.674 1.299-4.169 1.593-1.198-1.276-2.904-2.073-4.792-2.073-3.626 0-6.565 2.939-6.565 6.565 0 .515.058 1.016.17 1.496-5.456-.274-10.294-2.888-13.532-6.86-.565.97-.889 2.097-.889 3.301 0 2.278 1.159 4.287 2.921 5.465-1.076-.034-2.088-.329-2.974-.821l-.001.083c0 3.181 2.263 5.834 5.266 6.437-.551.15-1.131.23-1.73.23-.423 0-.834-.041-1.235-.118.835 2.608 3.26 4.506 6.133 4.559-2.247 1.761-5.078 2.81-8.154 2.81-.53 0-1.052-.031-1.566-.092 2.905 1.863 6.356 2.95 10.064 2.95 12.076 0 18.679-10.004 18.679-18.68 0-.285-.006-.568-.019-.849 1.283-.926 2.396-2.082 3.276-3.398z"/>
    </symbol>
</svg>