<svg style="display:none" xmlns="http://www.w3.org/2000/svg" ><defs><g id="GD-logo1-icon"><path fill="#262262" d="M114.645 127.56v58.879c-41.551 0-75.235-33.684-75.235-75.235s33.684-75.234 75.235-75.234v-32.711c-59.617 0-107.946 48.329-107.946 107.946s48.329 107.945 107.946 107.945l16.355-16.355 16.355-16.354v-91.591l-32.71 32.71z"/><path fill="#8DC63F" d="M147.355 94.85l-32.711 32.711h32.711c41.551 0 75.235 33.684 75.235 75.235s-33.684 75.235-75.235 75.235v-68.693l-32.711 32.711v68.693h32.711c59.617 0 107.946-48.329 107.946-107.946s-48.329-107.946-107.946-107.946z"/></g><g id="GD-logo2-icon"><path fill="#262262" d="M135.587 160.335v63.7c0 1.244-1.018 2.238-2.262 2.208-49.381-1.201-89.042-41.607-89.042-91.276 0-49.707 39.721-90.136 89.153-91.279 1.182-.027 2.15-1.019 2.15-2.202v-35.294c0-1.24-1.014-2.228-2.254-2.207-71.308 1.203-128.746 59.385-128.746 130.982 0 72.042 58.153 130.501 130.077 130.998.508.004 1.217-.29 1.576-.649l19.196-19.196 19.203-19.201c.355-.355.646-1.057.646-1.56v-104.916c0-2.928-1.694-3.63-3.765-1.559l-32.03 32.029c-2.145 2.146-3.902 6.386-3.902 9.422z"/><path fill="#8DC63F" d="M171.994 118.409l-32.546 32.592c-2.123 2.126-3.861 6.325-3.861 9.329v.055c1.388-3.582 3.788-5.522 8.835-5.565l3.679-.005h27.183c3.538 0 7.029.201 10.462.593 45.499 5.19 80.842 43.823 80.842 90.711 0 47.712-36.597 86.876-83.251 90.953-1.913.167-3.844.275-5.789.323-1.24.03-2.264-.967-2.264-2.208v-75.804c0-1.965-2.376-2.949-3.765-1.559l-34.641 34.641c-.711.711-1.292 2.114-1.292 3.119v77.126c0 2.426 1.985 4.411 4.411 4.411h35.286c2.803 0 5.585-.088 8.344-.261 68.462-4.303 122.657-61.193 122.657-130.74 0-70.727-56.05-128.363-126.153-130.913-3.038-.111-5.987 1.052-8.137 3.202z"/></g></defs></svg>