<svg xmlns="http://www.w3.org/2000/svg" style="display: none;">
    <symbol id="icon-GD-logo2" viewBox="0 0 310 380">
      <title>GD-logo2 icon</title>
      <path fill="#3E215A" d="M135.587 160.335v63.7c0 1.244-1.018 2.238-2.262 2.208-49.38-1.2-89.042-41.607-89.042-91.276 0-49.707 39.72-90.136 89.153-91.28 1.182-.026 2.15-1.018 2.15-2.2V6.19c0-1.24-1.014-2.228-2.254-2.207C62.024 5.188 4.586 63.37 4.586 134.967c0 72.042 58.153 130.5 130.077 130.998.508.004 1.217-.29 1.576-.65l19.195-19.195 19.203-19.2c.355-.356.646-1.058.646-1.56V120.442c0-2.928-1.694-3.63-3.765-1.56l-32.03 32.03c-2.146 2.146-3.903 6.386-3.903 9.422z"/><path fill="#8DC63F" d="M171.994 118.41L139.448 151c-2.123 2.127-3.86 6.326-3.86 9.33v.055c1.387-3.582 3.787-5.522 8.834-5.565l3.68-.005h27.182c3.538 0 7.03.2 10.462.593 45.5 5.19 80.842 43.823 80.842 90.71 0 47.713-36.597 86.877-83.25 90.954-1.914.167-3.845.275-5.79.323-1.24.03-2.264-.967-2.264-2.208v-75.804c0-1.965-2.376-2.95-3.765-1.56l-34.642 34.642c-.71.71-1.292 2.114-1.292 3.12v77.125c0 2.426 1.985 4.41 4.41 4.41h35.287c2.803 0 5.585-.087 8.344-.26 68.462-4.303 122.657-61.193 122.657-130.74 0-70.727-56.05-128.363-126.153-130.913-3.037-.11-5.986 1.052-8.136 3.202z"/>
    </symbol>

    <symbol id="icon-envelope" viewBox="0 0 32 32">
      <title>envelope icon</title>
      <path d="M29 4H3C1.35 4 0 5.35 0 7v20c0 1.65 1.35 3 3 3h26c1.65 0 3-1.35 3-3V7c0-1.65-1.35-3-3-3zM12.46 17.2L4 23.79V8.112l8.46 9.086zM5.513 8h20.976L16 15.875 5.512 8zm7.278 9.553L16 21l3.21-3.447L25.79 26H6.21l6.58-8.447zm6.75-.354L28 8.112V23.79l-8.46-6.59z"/>
    </symbol>

    <symbol id="icon-folder" viewBox="0 0 32 32">
      <title>folder icon</title>
      <path d="M0 10h32l-2 20H2L0 10zm29-4l1 2H2l2-4h11l1 2h13z"/>
    </symbol>

    <symbol id="icon-github" viewBox="0 0 32 32">
      <title>github icon</title>
      <path d="M16 0C7.163 0 0 7.163 0 16s7.163 16 16 16 16-7.163 16-16S24.837 0 16 0zm9.502 25.502c-1.235 1.235-2.672 2.204-4.272 2.88-.406.173-.82.324-1.238.454v-2.398c0-1.26-.432-2.188-1.297-2.78.542-.053 1.04-.126 1.492-.22s.932-.23 1.438-.406.958-.388 1.36-.633.785-.564 1.155-.954.68-.833.93-1.328.448-1.09.594-1.78.22-1.457.22-2.29c0-1.615-.527-2.99-1.58-4.125.48-1.25.428-2.61-.155-4.078l-.392-.047c-.27-.03-.758.083-1.46.344s-1.493.688-2.368 1.28c-1.24-.343-2.526-.515-3.86-.515-1.343 0-2.624.172-3.843.516-.552-.375-1.075-.685-1.57-.93s-.89-.41-1.188-.5-.574-.143-.83-.164-.418-.027-.49-.017-.126.02-.157.03c-.583 1.48-.635 2.84-.156 4.08-1.052 1.134-1.578 2.51-1.578 4.124 0 .833.072 1.596.218 2.29s.344 1.285.594 1.78.56.938.93 1.328.755.708 1.156.953.854.456 1.36.633.983.314 1.437.407.95.167 1.492.22c-.854.582-1.28 1.51-1.28 2.78v2.445c-.473-.14-.938-.306-1.395-.5-1.6-.677-3.037-1.646-4.272-2.88s-2.204-2.673-2.88-4.273c-.7-1.656-1.056-3.415-1.056-5.23s.355-3.576 1.055-5.23c.676-1.6 1.645-3.038 2.88-4.273s2.672-2.204 4.272-2.88c1.655-.7 3.415-1.056 5.23-1.056s3.575.356 5.23 1.056c1.6.677 3.037 1.646 4.272 2.88s2.204 2.673 2.88 4.273c.7 1.654 1.056 3.414 1.056 5.23s-.355 3.574-1.055 5.23c-.677 1.6-1.646 3.036-2.88 4.27z"/>
    </symbol>

    <symbol id="icon-home" viewBox="0 0 32 32">
      <title>home icon</title>
      <path d="M16 2L0 18l3 3 3-3 2 12h6v-6h4v6h6l2-12 3 3 3-3L16 2zm0 12.828c-1.562 0-2.83-1.266-2.83-2.828S14.438 9.172 16 9.172c1.562 0 2.828 1.266 2.828 2.828S17.562 14.828 16 14.828z"/>
    </symbol>

    <symbol id="icon-image" viewBox="0 0 32 32">
      <title>image icon</title>
      <path d="M0 4v26h32V4H0zm30 24H2V6h28v22zm-8-17c0-1.657 1.343-3 3-3s3 1.343 3 3-1.343 3-3 3-3-1.343-3-3zm6 15H4l6-16 8 10 4-3z"/>
    </symbol>

    <symbol id="icon-linkedin" viewBox="0 0 32 32">
      <title>linkedin icon</title>
      <path d="M26.625 0H5.375C2.42 0 0 2.42 0 5.375v21.25C0 29.58 2.42 32 5.375 32h21.25C29.58 32 32 29.58 32 26.625V5.375C32 2.42 29.58 0 26.625 0zM12 26H8V12h4v14zm-2-16c-1.105 0-2-.895-2-2s.895-2 2-2 2 .895 2 2-.895 2-2 2zm16 16h-4v-8c0-1.105-.895-2-2-2s-2 .895-2 2v8h-4V12h4v2.483C18.825 13.35 20.086 12 21.5 12c2.485 0 4.5 2.24 4.5 5v9z"/>
    </symbol>

    <symbol id="icon-menu" viewBox="0 0 32 32">
      <title>menu icon</title>
      <path d="M2 6h28v6H2zm0 8h28v6H2zm0 8h28v6H2z"/>
    </symbol>

    <symbol id="icon-mobile" viewBox="0 0 32 32">
      <title>mobile icon</title>
      <path d="M23 0H9C7.35 0 6 1.35 6 3v26c0 1.65 1.35 3 3 3h14c1.65 0 3-1.35 3-3V3c0-1.65-1.35-3-3-3zM12 1.5h8v1h-8v-1zM16 30c-1.105 0-2-.895-2-2s.895-2 2-2 2 .895 2 2-.895 2-2 2zm8-6H8V4h16v20z"/>
    </symbol>

    <symbol id="icon-twitter" viewBox="0 0 32 32">
      <title>twitter icon</title>
      <path d="M32 6.076c-1.177.522-2.443.875-3.77 1.034 1.354-.813 2.395-2.1 2.886-3.632-1.27.752-2.674 1.3-4.17 1.593C25.75 3.796 24.044 3 22.157 3c-3.627 0-6.566 2.94-6.566 6.565 0 .515.058 1.016.17 1.496-5.456-.275-10.294-2.89-13.532-6.86-.565.97-.89 2.096-.89 3.3 0 2.278 1.16 4.287 2.922 5.465-1.076-.034-2.088-.33-2.974-.82v.082c0 3.18 2.262 5.834 5.265 6.437-.55.15-1.13.23-1.73.23-.422 0-.833-.04-1.234-.118.835 2.608 3.26 4.506 6.133 4.56-2.248 1.76-5.08 2.81-8.155 2.81-.53 0-1.052-.032-1.566-.093 2.904 1.863 6.355 2.95 10.063 2.95 12.076 0 18.68-10.004 18.68-18.68 0-.285-.007-.568-.02-.85C30.006 8.55 31.12 7.394 32 6.077z"/>
    </symbol>
</svg>