<svg width="1920" height="952" xmlns="http://www.w3.org/2000/svg"><g><path d="M-118.7660729745403,-153.19776945514604L-145.14316723914817,896.2414200277999L-110.99498369032517,549.7958139143884Z" fill="#c8e6fc" stroke="#c8e6fc"></path><path d="M-118.7660729745403,-153.19776945514604L-110.99498369032517,549.7958139143884L-87.64484468381852,129.0044577140361Z" fill="#f9f8fe" stroke="#f9f8fe"></path><path d="M-118.7660729745403,-153.19776945514604L-87.64484468381852,129.0044577140361L74.68289306620136,-75.18715355312452Z" fill="#fdf9fc" stroke="#fdf9fc"></path><path d="M-118.7660729745403,-153.19776945514604L74.68289306620136,-75.18715355312452L292.106970010791,-111.69015694409609Z" fill="#f6f3f9" stroke="#f6f3f9"></path><path d="M-118.7660729745403,-153.19776945514604L292.106970010791,-111.69015694409609L669.4771971646696,-120.96182328183204Z" fill="#eaeaf4" stroke="#eaeaf4"></path><path d="M-118.7660729745403,-153.19776945514604L669.4771971646696,-120.96182328183204L1313.899357446935,-121.88309486955404Z" fill="#d4dfee" stroke="#d4dfee"></path><path d="M-118.7660729745403,-153.19776945514604L1313.899357446935,-121.88309486955404L1926.0153733752668,-142.99596051918343Z" fill="#aad1e0" stroke="#aad1e0"></path><path d="M74.68289306620136,-75.18715355312452L-87.64484468381852,129.0044577140361L127.15893396409228,54.11495391977951Z" fill="#f7f5fa" stroke="#f7f5fa"></path><path d="M74.68289306620136,-75.18715355312452L127.15893396409228,54.11495391977951L292.106970010791,-111.69015694409609Z" fill="#f1f0f7" stroke="#f1f0f7"></path><path d="M292.106970010791,-111.69015694409609L127.15893396409228,54.11495391977951L269.39569955458865,94.38737960066646Z" fill="#edecf5" stroke="#edecf5"></path><path d="M292.106970010791,-111.69015694409609L269.39569955458865,94.38737960066646L464.23558285227045,94.12028998602182Z" fill="#e6e7f2" stroke="#e6e7f2"></path><path d="M292.106970010791,-111.69015694409609L464.23558285227045,94.12028998602182L512.2394771547988,-67.73553354199976Z" fill="#e1e5f1" stroke="#e1e5f1"></path><path d="M292.106970010791,-111.69015694409609L512.2394771547988,-67.73553354199976L669.4771971646696,-120.96182328183204Z" fill="#dde3f0" stroke="#dde3f0"></path><path d="M512.2394771547988,-67.73553354199976L464.23558285227045,94.12028998602182L705.4985563177615,129.98914579628035Z" fill="#d7e0ef" stroke="#d7e0ef"></path><path d="M512.2394771547988,-67.73553354199976L705.4985563177615,129.98914579628035L669.4771971646696,-120.96182328183204Z" fill="#d3dfed" stroke="#d3dfed"></path><path d="M669.4771971646696,-120.96182328183204L705.4985563177615,129.98914579628035L858.2327175908722,65.22478977916762Z" fill="#c8daeb" stroke="#c8daeb"></path><path d="M669.4771971646696,-120.96182328183204L858.2327175908722,65.22478977916762L881.4059100439772,-100.3505753329955Z" fill="#c3d9ea" stroke="#c3d9ea"></path><path d="M669.4771971646696,-120.96182328183204L881.4059100439772,-100.3505753329955L1079.989766892977,-99.93877158733085Z" fill="#bbd7e9" stroke="#bbd7e9"></path><path d="M669.4771971646696,-120.96182328183204L1079.989766892977,-99.93877158733085L1313.899357446935,-121.88309486955404Z" fill="#acd2e2" stroke="#acd2e2"></path><path d="M881.4059100439772,-100.3505753329955L858.2327175908722,65.22478977916762L1079.989766892977,-99.93877158733085Z" fill="#b5d5e8" stroke="#b5d5e8"></path><path d="M1079.989766892977,-99.93877158733085L858.2327175908722,65.22478977916762L1109.0352433174849,95.60720841865987Z" fill="#acd2e3" stroke="#acd2e3"></path><path d="M1079.989766892977,-99.93877158733085L1109.0352433174849,95.60720841865987L1313.899357446935,-121.88309486955404Z" fill="#9bccd6" stroke="#9bccd6"></path><path d="M1313.899357446935,-121.88309486955404L1109.0352433174849,95.60720841865987L1322.1614377875812,148.35578575264663Z" fill="#90c8cf" stroke="#90c8cf"></path><path d="M1313.899357446935,-121.88309486955404L1322.1614377875812,148.35578575264663L1481.5135775576346,132.56818770896643Z" fill="#89c2c3" stroke="#89c2c3"></path><path d="M1313.899357446935,-121.88309486955404L1481.5135775576346,132.56818770896643L1485.6185611290857,-117.3404083866626Z" fill="#88bfbe" stroke="#88bfbe"></path><path d="M1313.899357446935,-121.88309486955404L1485.6185611290857,-117.3404083866626L1926.0153733752668,-142.99596051918343Z" fill="#81b7af" stroke="#81b7af"></path><path d="M1485.6185611290857,-117.3404083866626L1481.5135775576346,132.56818770896643L1712.2943918267265,136.06448332313448Z" fill="#81b7b0" stroke="#81b7b0"></path><path d="M1485.6185611290857,-117.3404083866626L1712.2943918267265,136.06448332313448L1732.4400593480095,-108.35477928863838Z" fill="#80b3a8" stroke="#80b3a8"></path><path d="M1485.6185611290857,-117.3404083866626L1732.4400593480095,-108.35477928863838L1926.0153733752668,-142.99596051918343Z" fill="#80afa1" stroke="#80afa1"></path><path d="M1732.4400593480095,-108.35477928863838L1712.2943918267265,136.06448332313448L1897.7852195478044,120.16746379667893Z" fill="#7fab9a" stroke="#7fab9a"></path><path d="M1732.4400593480095,-108.35477928863838L1897.7852195478044,120.16746379667893L1926.0153733752668,-142.99596051918343Z" fill="#80a893" stroke="#80a893"></path><path d="M1926.0153733752668,-142.99596051918343L1897.7852195478044,120.16746379667893L2053.219663351774,-107.60736152762547Z" fill="#80a288" stroke="#80a288"></path><path d="M2053.219663351774,-107.60736152762547L1897.7852195478044,120.16746379667893L2122.2628832492046,125.44052812969312Z" fill="#7f9d82" stroke="#7f9d82"></path><path d="M-87.64484468381852,129.0044577140361L-110.99498369032517,549.7958139143884L-63.813587471377105,340.40680214064196Z" fill="#ddebfd" stroke="#ddebfd"></path><path d="M-87.64484468381852,129.0044577140361L-63.813587471377105,340.40680214064196L139.3500576959923,298.7056864006445Z" fill="#e8edfb" stroke="#e8edfb"></path><path d="M-87.64484468381852,129.0044577140361L139.3500576959923,298.7056864006445L127.15893396409228,54.11495391977951Z" fill="#f3f1fa" stroke="#f3f1fa"></path><path d="M127.15893396409228,54.11495391977951L139.3500576959923,298.7056864006445L269.39569955458865,94.38737960066646Z" fill="#edecf7" stroke="#edecf7"></path><path d="M269.39569955458865,94.38737960066646L139.3500576959923,298.7056864006445L298.58531951438636,309.6391341369599Z" fill="#dde4f5" stroke="#dde4f5"></path><path d="M269.39569955458865,94.38737960066646L298.58531951438636,309.6391341369599L464.23558285227045,94.12028998602182Z" fill="#e2e4f2" stroke="#e2e4f2"></path><path d="M464.23558285227045,94.12028998602182L298.58531951438636,309.6391341369599L515.6626636511646,285.61293700011447Z" fill="#d2dcf1" stroke="#d2dcf1"></path><path d="M464.23558285227045,94.12028998602182L515.6626636511646,285.61293700011447L705.4985563177615,129.98914579628035Z" fill="#d2ddef" stroke="#d2ddef"></path><path d="M705.4985563177615,129.98914579628035L515.6626636511646,285.61293700011447L711.1163657600991,352.19497894868255Z" fill="#bfd4ed" stroke="#bfd4ed"></path><path d="M705.4985563177615,129.98914579628035L711.1163657600991,352.19497894868255L952.1500756847672,336.16768695414066Z" fill="#afceea" stroke="#afceea"></path><path d="M705.4985563177615,129.98914579628035L952.1500756847672,336.16768695414066L858.2327175908722,65.22478977916762Z" fill="#b9d4ea" stroke="#b9d4ea"></path><path d="M858.2327175908722,65.22478977916762L952.1500756847672,336.16768695414066L1109.0352433174849,95.60720841865987Z" fill="#add0e6" stroke="#add0e6"></path><path d="M1109.0352433174849,95.60720841865987L952.1500756847672,336.16768695414066L1140.4767614183947,307.5113019323908Z" fill="#95c7de" stroke="#95c7de"></path><path d="M1109.0352433174849,95.60720841865987L1140.4767614183947,307.5113019323908L1297.6630538981408,273.25154196005315Z" fill="#8bc4d4" stroke="#8bc4d4"></path><path d="M1109.0352433174849,95.60720841865987L1297.6630538981408,273.25154196005315L1322.1614377875812,148.35578575264663Z" fill="#8dc5cf" stroke="#8dc5cf"></path><path d="M1322.1614377875812,148.35578575264663L1297.6630538981408,273.25154196005315L1446.9525485718623,282.8125997562893Z" fill="#7bbac5" stroke="#7bbac5"></path><path d="M1322.1614377875812,148.35578575264663L1446.9525485718623,282.8125997562893L1481.5135775576346,132.56818770896643Z" fill="#80bbbf" stroke="#80bbbf"></path><path d="M1481.5135775576346,132.56818770896643L1446.9525485718623,282.8125997562893L1683.356899318751,330.63769846688956Z" fill="#71afb3" stroke="#71afb3"></path><path d="M1481.5135775576346,132.56818770896643L1683.356899318751,330.63769846688956L1712.2943918267265,136.06448332313448Z" fill="#76aeaa" stroke="#76aeaa"></path><path d="M1712.2943918267265,136.06448332313448L1683.356899318751,330.63769846688956L1951.5895347995684,316.16877112770453Z" fill="#6ca19a" stroke="#6ca19a"></path><path d="M1712.2943918267265,136.06448332313448L1951.5895347995684,316.16877112770453L1897.7852195478044,120.16746379667893Z" fill="#77a293" stroke="#77a293"></path><path d="M1897.7852195478044,120.16746379667893L1951.5895347995684,316.16877112770453L2119.837854623329,255.94624102581292Z" fill="#719785" stroke="#719785"></path><path d="M1897.7852195478044,120.16746379667893L2119.837854623329,255.94624102581292L2122.2628832492046,125.44052812969312Z" fill="#7b9980" stroke="#7b9980"></path><path d="M2122.2628832492046,125.44052812969312L2119.837854623329,255.94624102581292L2147.3278799420223,728.6994988447987Z" fill="#57857e" stroke="#57857e"></path><path d="M-63.813587471377105,340.40680214064196L-110.99498369032517,549.7958139143884L97.66521434532478,515.7117710984312Z" fill="#bcdef8" stroke="#bcdef8"></path><path d="M-63.813587471377105,340.40680214064196L97.66521434532478,515.7117710984312L139.3500576959923,298.7056864006445Z" fill="#cbe1f8" stroke="#cbe1f8"></path><path d="M139.3500576959923,298.7056864006445L97.66521434532478,515.7117710984312L291.7227360862307,502.1995562594384Z" fill="#b7d7f4" stroke="#b7d7f4"></path><path d="M139.3500576959923,298.7056864006445L291.7227360862307,502.1995562594384L298.58531951438636,309.6391341369599Z" fill="#c3d9f3" stroke="#c3d9f3"></path><path d="M298.58531951438636,309.6391341369599L291.7227360862307,502.1995562594384L515.6626636511646,285.61293700011447Z" fill="#bdd4f1" stroke="#bdd4f1"></path><path d="M515.6626636511646,285.61293700011447L291.7227360862307,502.1995562594384L541.5444112871774,534.5574630633928Z" fill="#a6ccee" stroke="#a6ccee"></path><path d="M515.6626636511646,285.61293700011447L541.5444112871774,534.5574630633928L711.1163657600991,352.19497894868255Z" fill="#a8cbec" stroke="#a8cbec"></path><path d="M711.1163657600991,352.19497894868255L541.5444112871774,534.5574630633928L663.721239885781,549.4390589674003Z" fill="#90c3e9" stroke="#90c3e9"></path><path d="M711.1163657600991,352.19497894868255L663.721239885781,549.4390589674003L847.7712839352898,511.32046464364976Z" fill="#88c1e7" stroke="#88c1e7"></path><path d="M711.1163657600991,352.19497894868255L847.7712839352898,511.32046464364976L952.1500756847672,336.16768695414066Z" fill="#8fc3e8" stroke="#8fc3e8"></path><path d="M952.1500756847672,336.16768695414066L847.7712839352898,511.32046464364976L1143.4588728821836,552.2813394665718Z" fill="#71b9e1" stroke="#71b9e1"></path><path d="M952.1500756847672,336.16768695414066L1143.4588728821836,552.2813394665718L1140.4767614183947,307.5113019323908Z" fill="#76bbdb" stroke="#76bbdb"></path><path d="M1140.4767614183947,307.5113019323908L1143.4588728821836,552.2813394665718L1306.0416570375673,473.48812041571364Z" fill="#5db3d0" stroke="#5db3d0"></path><path d="M1140.4767614183947,307.5113019323908L1306.0416570375673,473.48812041571364L1297.6630538981408,273.25154196005315Z" fill="#6db7ce" stroke="#6db7ce"></path><path d="M1297.6630538981408,273.25154196005315L1306.0416570375673,473.48812041571364L1446.9525485718623,282.8125997562893Z" fill="#68b3c5" stroke="#68b3c5"></path><path d="M1446.9525485718623,282.8125997562893L1306.0416570375673,473.48812041571364L1483.8465002155863,463.86052053887397Z" fill="#57aabd" stroke="#57aabd"></path><path d="M1446.9525485718623,282.8125997562893L1483.8465002155863,463.86052053887397L1683.356899318751,330.63769846688956Z" fill="#5ca7b1" stroke="#5ca7b1"></path><path d="M1683.356899318751,330.63769846688956L1483.8465002155863,463.86052053887397L1750.961096403189,546.0667658760212Z" fill="#459ba5" stroke="#459ba5"></path><path d="M1683.356899318751,330.63769846688956L1750.961096403189,546.0667658760212L1854.8124262550846,473.6466187145561Z" fill="#449498" stroke="#449498"></path><path d="M1683.356899318751,330.63769846688956L1854.8124262550846,473.6466187145561L1951.5895347995684,316.16877112770453Z" fill="#569694" stroke="#569694"></path><path d="M1951.5895347995684,316.16877112770453L1854.8124262550846,473.6466187145561L2123.2726436085068,496.18529870174825Z" fill="#498984" stroke="#498984"></path><path d="M1951.5895347995684,316.16877112770453L2123.2726436085068,496.18529870174825L2119.837854623329,255.94624102581292Z" fill="#5a8a7f" stroke="#5a8a7f"></path><path d="M2119.837854623329,255.94624102581292L2123.2726436085068,496.18529870174825L2147.3278799420223,728.6994988447987Z" fill="#397b78" stroke="#397b78"></path><path d="M-110.99498369032517,549.7958139143884L-145.14316723914817,896.2414200277999L-52.50296504702419,700.9120133076794Z" fill="#91c8c6" stroke="#91c8c6"></path><path d="M-110.99498369032517,549.7958139143884L-52.50296504702419,700.9120133076794L97.66521434532478,515.7117710984312Z" fill="#9bd3e1" stroke="#9bd3e1"></path><path d="M97.66521434532478,515.7117710984312L-52.50296504702419,700.9120133076794L62.72683766670525,733.0479186493903Z" fill="#8bcad2" stroke="#8bcad2"></path><path d="M97.66521434532478,515.7117710984312L62.72683766670525,733.0479186493903L278.8539805589244,735.360866538249Z" fill="#84c3cc" stroke="#84c3cc"></path><path d="M97.66521434532478,515.7117710984312L278.8539805589244,735.360866538249L291.7227360862307,502.1995562594384Z" fill="#8ec8db" stroke="#8ec8db"></path><path d="M291.7227360862307,502.1995562594384L278.8539805589244,735.360866538249L507.46984572848305,699.4710054341704Z" fill="#77bccb" stroke="#77bccb"></path><path d="M291.7227360862307,502.1995562594384L507.46984572848305,699.4710054341704L541.5444112871774,534.5574630633928Z" fill="#81c0d8" stroke="#81c0d8"></path><path d="M541.5444112871774,534.5574630633928L507.46984572848305,699.4710054341704L663.721239885781,549.4390589674003Z" fill="#74bad2" stroke="#74bad2"></path><path d="M663.721239885781,549.4390589674003L507.46984572848305,699.4710054341704L705.5013654497452,682.8214410063811Z" fill="#66b4c7" stroke="#66b4c7"></path><path d="M663.721239885781,549.4390589674003L705.5013654497452,682.8214410063811L847.7712839352898,511.32046464364976Z" fill="#6ab7d2" stroke="#6ab7d2"></path><path d="M847.7712839352898,511.32046464364976L705.5013654497452,682.8214410063811L943.0343896895647,684.6678980602883Z" fill="#54b0c7" stroke="#54b0c7"></path><path d="M847.7712839352898,511.32046464364976L943.0343896895647,684.6678980602883L1143.4588728821836,552.2813394665718Z" fill="#52afcc" stroke="#52afcc"></path><path d="M1143.4588728821836,552.2813394665718L943.0343896895647,684.6678980602883L1121.1859065899625,745.6740896753035Z" fill="#38a3b3" stroke="#38a3b3"></path><path d="M1143.4588728821836,552.2813394665718L1121.1859065899625,745.6740896753035L1329.5856508915313,678.484802970197Z" fill="#299ea9" stroke="#299ea9"></path><path d="M1143.4588728821836,552.2813394665718L1329.5856508915313,678.484802970197L1306.0416570375673,473.48812041571364Z" fill="#35a5b7" stroke="#35a5b7"></path><path d="M1306.0416570375673,473.48812041571364L1329.5856508915313,678.484802970197L1483.8465002155863,463.86052053887397Z" fill="#36a2b2" stroke="#36a2b2"></path><path d="M1483.8465002155863,463.86052053887397L1329.5856508915313,678.484802970197L1496.8579276488163,713.9289933885448Z" fill="#1e979c" stroke="#1e979c"></path><path d="M1483.8465002155863,463.86052053887397L1496.8579276488163,713.9289933885448L1679.2950614308938,656.4047828339972Z" fill="#1b9191" stroke="#1b9191"></path><path d="M1483.8465002155863,463.86052053887397L1679.2950614308938,656.4047828339972L1750.961096403189,546.0667658760212Z" fill="#289194" stroke="#289194"></path><path d="M1750.961096403189,546.0667658760212L1679.2950614308938,656.4047828339972L1890.781751323957,749.4426753697917Z" fill="#128072" stroke="#128072"></path><path d="M1750.961096403189,546.0667658760212L1890.781751323957,749.4426753697917L1854.8124262550846,473.6466187145561Z" fill="#1e837a" stroke="#1e837a"></path><path d="M1854.8124262550846,473.6466187145561L1890.781751323957,749.4426753697917L2123.2726436085068,496.18529870174825Z" fill="#237e71" stroke="#237e71"></path><path d="M2123.2726436085068,496.18529870174825L1890.781751323957,749.4426753697917L2147.3278799420223,728.6994988447987Z" fill="#127056" stroke="#127056"></path><path d="M-52.50296504702419,700.9120133076794L-145.14316723914817,896.2414200277999L62.72683766670525,733.0479186493903Z" fill="#8fbcb6" stroke="#8fbcb6"></path><path d="M62.72683766670525,733.0479186493903L-145.14316723914817,896.2414200277999L150.55179493967444,951.4626398310065Z" fill="#8baea0" stroke="#8baea0"></path><path d="M62.72683766670525,733.0479186493903L150.55179493967444,951.4626398310065L278.8539805589244,735.360866538249Z" fill="#83afa9" stroke="#83afa9"></path><path d="M278.8539805589244,735.360866538249L150.55179493967444,951.4626398310065L300.7544915447943,950.7940032356419Z" fill="#7ea196" stroke="#7ea196"></path><path d="M278.8539805589244,735.360866538249L300.7544915447943,950.7940032356419L489.9611816741526,858.4970724745654Z" fill="#77a19b" stroke="#77a19b"></path><path d="M278.8539805589244,735.360866538249L489.9611816741526,858.4970724745654L507.46984572848305,699.4710054341704Z" fill="#73aaad" stroke="#73aaad"></path><path d="M507.46984572848305,699.4710054341704L489.9611816741526,858.4970724745654L660.0230047339574,900.8468250185251Z" fill="#6a9e9e" stroke="#6a9e9e"></path><path d="M507.46984572848305,699.4710054341704L660.0230047339574,900.8468250185251L705.5013654497452,682.8214410063811Z" fill="#66a4ab" stroke="#66a4ab"></path><path d="M705.5013654497452,682.8214410063811L660.0230047339574,900.8468250185251L852.1824178425595,870.1704323035665Z" fill="#5b999b" stroke="#5b999b"></path><path d="M705.5013654497452,682.8214410063811L852.1824178425595,870.1704323035665L943.0343896895647,684.6678980602883Z" fill="#52a0ab" stroke="#52a0ab"></path><path d="M943.0343896895647,684.6678980602883L852.1824178425595,870.1704323035665L1073.6775219836272,929.6250828751363Z" fill="#469194" stroke="#469194"></path><path d="M943.0343896895647,684.6678980602883L1073.6775219836272,929.6250828751363L1121.1859065899625,745.6740896753035Z" fill="#3b9397" stroke="#3b9397"></path><path d="M1121.1859065899625,745.6740896753035L1073.6775219836272,929.6250828751363L1334.5059174136259,899.6073200087994Z" fill="#2c847b" stroke="#2c847b"></path><path d="M1121.1859065899625,745.6740896753035L1334.5059174136259,899.6073200087994L1329.5856508915313,678.484802970197Z" fill="#228c88" stroke="#228c88"></path><path d="M1329.5856508915313,678.484802970197L1334.5059174136259,899.6073200087994L1496.8579276488163,713.9289933885448Z" fill="#1b877e" stroke="#1b877e"></path><path d="M1496.8579276488163,713.9289933885448L1334.5059174136259,899.6073200087994L1498.0309825227596,877.9134070128202Z" fill="#197b68" stroke="#197b68"></path><path d="M1496.8579276488163,713.9289933885448L1498.0309825227596,877.9134070128202L1710.0481408135965,913.5317179234698Z" fill="#14735b" stroke="#14735b"></path><path d="M1496.8579276488163,713.9289933885448L1710.0481408135965,913.5317179234698L1679.2950614308938,656.4047828339972Z" fill="#127a66" stroke="#127a66"></path><path d="M1679.2950614308938,656.4047828339972L1710.0481408135965,913.5317179234698L1890.781751323957,749.4426753697917Z" fill="#127057" stroke="#127057"></path><path d="M1890.781751323957,749.4426753697917L1710.0481408135965,913.5317179234698L1874.0350671694614,874.5579022006132Z" fill="#12633f" stroke="#12633f"></path><path d="M1890.781751323957,749.4426753697917L1874.0350671694614,874.5579022006132L2062.781478066463,917.158985605929Z" fill="#125c32" stroke="#125c32"></path><path d="M1890.781751323957,749.4426753697917L2062.781478066463,917.158985605929L2147.3278799420223,728.6994988447987Z" fill="#125e35" stroke="#125e35"></path><path d="M2147.3278799420223,728.6994988447987L2062.781478066463,917.158985605929L2055.169830706436,1118.6089619924314Z" fill="#124a17" stroke="#124a17"></path><path d="M-145.14316723914817,896.2414200277999L-49.255069226492196,1054.4167301920243L150.55179493967444,951.4626398310065Z" fill="#8ea188" stroke="#8ea188"></path><path d="M150.55179493967444,951.4626398310065L-49.255069226492196,1054.4167301920243L96.68367840815336,1107.4727394804358Z" fill="#89947a" stroke="#89947a"></path><path d="M150.55179493967444,951.4626398310065L96.68367840815336,1107.4727394804358L350.0283033354208,1045.3605577745475Z" fill="#818e76" stroke="#818e76"></path><path d="M150.55179493967444,951.4626398310065L350.0283033354208,1045.3605577745475L300.7544915447943,950.7940032356419Z" fill="#7d927c" stroke="#7d927c"></path><path d="M300.7544915447943,950.7940032356419L350.0283033354208,1045.3605577745475L489.9611816741526,858.4970724745654Z" fill="#769281" stroke="#769281"></path><path d="M489.9611816741526,858.4970724745654L350.0283033354208,1045.3605577745475L547.7988249785267,1107.4527468602173Z" fill="#708873" stroke="#708873"></path><path d="M489.9611816741526,858.4970724745654L547.7988249785267,1107.4527468602173L660.0230047339574,900.8468250185251Z" fill="#6a8c7d" stroke="#6a8c7d"></path><path d="M660.0230047339574,900.8468250185251L547.7988249785267,1107.4527468602173L726.2320925435051,1057.921915051993Z" fill="#64806e" stroke="#64806e"></path><path d="M660.0230047339574,900.8468250185251L726.2320925435051,1057.921915051993L852.1824178425595,870.1704323035665Z" fill="#5a877d" stroke="#5a877d"></path><path d="M852.1824178425595,870.1704323035665L726.2320925435051,1057.921915051993L910.1111976476386,1063.4410589421168Z" fill="#527e6e" stroke="#527e6e"></path><path d="M852.1824178425595,870.1704323035665L910.1111976476386,1063.4410589421168L1073.6775219836272,929.6250828751363Z" fill="#478077" stroke="#478077"></path><path d="M1073.6775219836272,929.6250828751363L910.1111976476386,1063.4410589421168L1080.6286701723002,1084.8019020538777Z" fill="#3e7363" stroke="#3e7363"></path><path d="M1073.6775219836272,929.6250828751363L1080.6286701723002,1084.8019020538777L1337.4364742124453,1068.0200653709471Z" fill="#2d6e57" stroke="#2d6e57"></path><path d="M1073.6775219836272,929.6250828751363L1337.4364742124453,1068.0200653709471L1334.5059174136259,899.6073200087994Z" fill="#23725b" stroke="#23725b"></path><path d="M1334.5059174136259,899.6073200087994L1337.4364742124453,1068.0200653709471L1498.0309825227596,877.9134070128202Z" fill="#1b6e52" stroke="#1b6e52"></path><path d="M1498.0309825227596,877.9134070128202L1337.4364742124453,1068.0200653709471L1447.7079874556512,1133.1356128538027Z" fill="#1a613e" stroke="#1a613e"></path><path d="M1498.0309825227596,877.9134070128202L1447.7079874556512,1133.1356128538027L1729.5387147250585,1096.2116348231211Z" fill="#145831" stroke="#145831"></path><path d="M1498.0309825227596,877.9134070128202L1729.5387147250585,1096.2116348231211L1710.0481408135965,913.5317179234698Z" fill="#125d35" stroke="#125d35"></path><path d="M1710.0481408135965,913.5317179234698L1729.5387147250585,1096.2116348231211L1874.0350671694614,874.5579022006132Z" fill="#125628" stroke="#125628"></path><path d="M1874.0350671694614,874.5579022006132L1729.5387147250585,1096.2116348231211L1859.3024256150238,1153.6651891632937Z" fill="#124917" stroke="#124917"></path><path d="M1874.0350671694614,874.5579022006132L1859.3024256150238,1153.6651891632937L2055.169830706436,1118.6089619924314Z" fill="#12420c" stroke="#12420c"></path><path d="M1874.0350671694614,874.5579022006132L2055.169830706436,1118.6089619924314L2062.781478066463,917.158985605929Z" fill="#124810" stroke="#124810"></path><path d="M96.68367840815336,1107.4727394804358L1859.3024256150238,1153.6651891632937L1447.7079874556512,1133.1356128538027Z" fill="#316059" stroke="#316059"></path><path d="M96.68367840815336,1107.4727394804358L1447.7079874556512,1133.1356128538027L547.7988249785267,1107.4527468602173Z" fill="#5f726d" stroke="#5f726d"></path><path d="M96.68367840815336,1107.4727394804358L547.7988249785267,1107.4527468602173L350.0283033354208,1045.3605577745475Z" fill="#798173" stroke="#798173"></path><path d="M547.7988249785267,1107.4527468602173L1447.7079874556512,1133.1356128538027L1080.6286701723002,1084.8019020538777Z" fill="#3e6862" stroke="#3e6862"></path><path d="M547.7988249785267,1107.4527468602173L1080.6286701723002,1084.8019020538777L910.1111976476386,1063.4410589421168Z" fill="#50716a" stroke="#50716a"></path><path d="M547.7988249785267,1107.4527468602173L910.1111976476386,1063.4410589421168L726.2320925435051,1057.921915051993Z" fill="#5c766c" stroke="#5c766c"></path><path d="M1080.6286701723002,1084.8019020538777L1447.7079874556512,1133.1356128538027L1337.4364742124453,1068.0200653709471Z" fill="#1f5f4c" stroke="#1f5f4c"></path><path d="M1447.7079874556512,1133.1356128538027L1859.3024256150238,1153.6651891632937L1729.5387147250585,1096.2116348231211Z" fill="#124525" stroke="#124525"></path></g></svg>