<?xml version="1.0" encoding="utf-8"?>
<!-- Generator: Adobe Illustrator 17.1.0, SVG Export Plug-In . SVG Version: 6.00 Build 0)  -->
<!DOCTYPE svg PUBLIC "-//W3C//DTD SVG 1.1 Tiny//EN" "http://www.w3.org/Graphics/SVG/1.1/DTD/svg11-tiny.dtd">
<svg version="1.1" baseProfile="tiny" id="Layer_1" xmlns="http://www.w3.org/2000/svg" xmlns:xlink="http://www.w3.org/1999/xlink"
	 x="0px" y="0px" viewBox="0 0 260 314" overflow="scroll" xml:space="preserve" width="260" height="314">
<path fill="#262262" d="M114.645,127.56v58.879c-41.551,0-75.235-33.684-75.235-75.235S73.094,35.97,114.645,35.97V3.259
	C55.028,3.259,6.699,51.588,6.699,111.205S55.028,219.15,114.645,219.15L131,202.795l16.355-16.354V94.85L114.645,127.56z"/>
<path fill="#8DC63F" d="M147.355,94.85l-32.711,32.711h32.711c41.551,0,75.235,33.684,75.235,75.235s-33.684,75.235-75.235,75.235
	v-68.693l-32.711,32.711v68.693h32.711c59.617,0,107.946-48.329,107.946-107.946S206.972,94.85,147.355,94.85z"/>
</svg>
